<?xml version="1.0" encoding="utf-8"?>
<!-- Generator: Adobe Illustrator 24.2.0, SVG Export Plug-In . SVG Version: 6.00 Build 0)  -->
<svg version="1.1" id="Layer_1" xmlns="http://www.w3.org/2000/svg" xmlns:xlink="http://www.w3.org/1999/xlink" x="0px" y="0px"
	 viewBox="0 0 1000 1000" style="enable-background:new 0 0 1000 1000;" xml:space="preserve">
<style type="text/css">
	.st0{fill-rule:evenodd;clip-rule:evenodd;}
	.st1{fill-rule:evenodd;clip-rule:evenodd;fill:#A7A9AC;}
</style>
<g>
	<polygon class="st0" points="239.4,463 239.4,580.5 289.7,580.5 289.7,463 239.4,463 	"/>
	<polygon class="st0" points="769.9,493.7 699.4,580.5 761.4,580.5 801.9,520.5 840.1,580.5 908.6,580.5 838.4,492.2 906.4,414.4 
		843.8,414.4 807.9,463 771.9,414.4 705.6,414.4 769.9,493.7 	"/>
	<path class="st0" d="M513.4,414.4V519c0,12.7,3.6,24.1,10.8,34.2c7.2,10.1,17.5,18,30.9,23.7c13.4,5.8,28.8,8.6,46.4,8.6
		c20.8,0,38-2.9,51.7-8.6c13.7-5.7,23.7-13.7,30-24c6.3-10.2,9.5-22.3,9.5-36V414.4h-52.4v95.7c0,9-1.1,16.5-3.5,22.6
		c-2.3,6.1-6.3,10.8-12,14.1c-5.7,3.3-13.4,5-23.3,5c-23.6,0-35.4-13.4-35.4-40.1v-97.3H513.4L513.4,414.4z"/>
	<polygon class="st0" points="312.4,414.4 312.4,580.5 358.2,580.5 358.2,455.6 420.2,580.5 493.3,580.5 493.3,414.4 446.6,414.4 
		446.6,537.3 384.8,414.4 312.4,414.4 	"/>
	<polygon class="st1" points="239.4,414.4 239.4,443.2 289.7,443.2 289.7,414.4 239.4,414.4 	"/>
	<polygon class="st0" points="91.4,414.4 91.4,580.5 226.4,580.5 226.4,546.2 144,546.2 144,414.4 91.4,414.4 	"/>
</g>
</svg>
